<svg xmlns="http://www.w3.org/2000/svg" xmlns:xlink="http://www.w3.org/1999/xlink" width="501.28" height="624" viewBox="0 0 501.28 624"><svg width="15" height="15" viewBox="0 0 15 15" id="01" y="0"><defs><style>.cls-1{fill:#90a4ae;fill-rule:evenodd}</style></defs><path id="_01.svg" data-name="01.svg" class="cls-1" d="M14.6 325.879h6.3v-6.263h-6.3v6.263zM12.579 311H6v6.507h6.578V311zm-.834 5.62H6.866v-4.752h4.878v4.752zM6 326h6.581v-6.51H6V326zm.864-5.625h4.9v4.731h-4.9v-4.731zm7.575-9.352v6.471H21v-6.471h-6.56zm5.709 5.6h-4.876v-4.725h4.876v4.725z" transform="translate(-6 -311)"></path></svg><svg width="19" height="20" viewBox="0 0 19 20" id="02" y="15"><defs><style>.cls-1{fill:#90a4ae;fill-rule:evenodd}</style></defs><path id="_02.svg" data-name="02.svg" class="cls-1" d="M9.737 296.173c-.293 0-.4-.255-.342-.819a26.941 26.941 0 0 1 .5-2.782c.093-.447.254-.88.354-1.22l2.673 2.625a11.279 11.279 0 0 1-2.607 2.014 1.424 1.424 0 0 1-.578.182m7.3-6.634c-.3-.782-.559-1.515-.867-2.224a280.206 280.206 0 0 0-2.067-4.61.35.35 0 0 1 .062-.468 3.469 3.469 0 0 1 2.554-1.113 3.427 3.427 0 0 1 3.34 2.5 2.941 2.941 0 0 1-.213 2.127l-1.64-.956-.394.736 1.646.971-2.421 3.041m-9.248-10.121a1.037 1.037 0 0 0 .577-.461c.071.283.137.542.2.8s.127.54.181.769c-.46.289-.893.568-1.336.831a.422.422 0 0 1-.2.054.26.26 0 0 1-.095-.016c-.432-.163-.857-.35-1.336-.55.189-.14.333-.241.47-.351a.506.506 0 0 0 .05-.84c-.138-.14-.28-.273-.433-.421a.479.479 0 0 1 .14-.02 1.287 1.287 0 0 1 .373.078 1.306 1.306 0 0 0 .367.077.489.489 0 0 0 .44-.3 1.32 1.32 0 0 0 .606.345M20.753 277a.582.582 0 0 0-.388.236c-.358.381-.719.759-1.093 1.153a6.392 6.392 0 0 0-.534-.67.607.607 0 0 0-.378-.164.26.26 0 0 0-.049 0 .561.561 0 0 0-.293.318 2.713 2.713 0 0 0-.129.529l-.439 1.921a5.706 5.706 0 0 0-.683-.042 4.3 4.3 0 0 0-3.3 1.469 4.346 4.346 0 0 0-3.168-1.413 4.605 4.605 0 0 0-.58.037h-.006a.339.339 0 0 1-.215-.213c-.177-.718-.323-1.444-.507-2.158a.587.587 0 0 0-.306-.385.19.19 0 0 0-.059-.008.672.672 0 0 0-.392.18 5.626 5.626 0 0 0-.526.647c-.4-.423-.78-.827-1.155-1.239a.425.425 0 0 0-.3-.171.386.386 0 0 0-.211.072.41.41 0 0 0-.165.528l.217.693c-.12-.022-.2-.032-.277-.052-.438-.113-.872-.248-1.316-.328a.419.419 0 0 0-.063 0 .5.5 0 0 0-.385.164.848.848 0 0 0 .007.528.6.6 0 0 0 .2.234c.4.386.8.769 1.233 1.178a5.811 5.811 0 0 0-.688.51.733.733 0 0 0-.22.481.554.554 0 0 0 .326.317c.592.26 1.195.493 1.8.738a4.155 4.155 0 0 0 .201 4.91c.853 1.106 1.734 2.189 2.613 3.272a.4.4 0 0 1 .071.431c-.2.621-.4 1.241-.57 1.872a10.314 10.314 0 0 0-.461 3.048 1.178 1.178 0 0 0 1.115 1.361 1.786 1.786 0 0 0 .556-.1 3 3 0 0 0 .786-.36c.848-.6 1.678-1.235 2.539-1.873.422.36.851.787 1.337 1.125a8.833 8.833 0 0 0 1.867 1.1 1.718 1.718 0 0 0 .593.117 1.054 1.054 0 0 0 1.031-1.19 5.344 5.344 0 0 0-.057-1.444 74.547 74.547 0 0 0-.907-3.614.58.58 0 0 1 .12-.6c.86-1.086 1.726-2.169 2.546-3.288a3.973 3.973 0 0 0 .754-3.372 11.387 11.387 0 0 0-.548-1.439c.571-.241 1.182-.492 1.787-.758a.421.421 0 0 0 .084-.787c-.222-.168-.452-.326-.7-.507l1.306-1.262a.469.469 0 0 0 .171-.617.364.364 0 0 0-.34-.2.922.922 0 0 0-.229.036c-.483.133-.97.247-1.512.382.091-.248.153-.437.229-.62a.468.468 0 0 0-.132-.651.368.368 0 0 0-.2-.068" transform="translate(-4 -277)"></path></svg><svg width="14.938" height="18.782" viewBox="0 0 14.938 18.782" id="03" y="35"><defs><style>.cls-1{fill:#90a4ae;fill-rule:evenodd}</style></defs><path id="_03.svg" data-name="03.svg" class="cls-1" d="M8.055 264.355h2.188a.32.32 0 0 0 .392-.309.331.331 0 0 0-.392-.349q-1.094-.009-2.188 0a.328.328 0 0 0-.378.333.316.316 0 0 0 .378.325zm.045 1.333h2.775a.338.338 0 0 0 .416-.321c.006-.281-.2-.335-.425-.341H8.118c-.313 0-.468.128-.448.351a.35.35 0 0 0 .43.311zm3.443.667H8.099c-.238 0-.433.061-.424.338a.347.347 0 0 0 .42.323h3.444a.346.346 0 0 0 .424-.348.332.332 0 0 0-.417-.313zm9.386-13.442a3.166 3.166 0 0 0-.31-1.962 1.437 1.437 0 0 0-2.124-.518 2.209 2.209 0 0 0-.6.525c-.385.54-.738 1.1-1.081 1.671-.2.324-.345.676-.54 1.065a2.343 2.343 0 0 0-.853-1.146.782.782 0 0 1-.272-.323 1.637 1.637 0 0 0-1-.963.516.516 0 0 1-.249-.262 1.133 1.133 0 0 0-1.4-.647.727.727 0 0 1-.43.006 1.241 1.241 0 0 0-1.5.664.623.623 0 0 1-.274.275 1.614 1.614 0 0 0-.88 1.136.485.485 0 0 1-.237.285 1.571 1.571 0 0 0-.97 1.2A5.3 5.3 0 0 1 8 255.558a.778.778 0 0 0 0 .266 1.334 1.334 0 0 1-.02.151 10.157 10.157 0 0 0-.98-.386.362.362 0 0 0-.533.259.379.379 0 0 0 .431.386.92.92 0 0 1 .672.413c-.253.11-.5.2-.721.319a1.427 1.427 0 0 0-.835 1.249c-.012.4-.018.806 0 1.207.042.742.108 1.483.161 2.223q.194 2.717.385 5.431a1.892 1.892 0 0 0 1.825 1.851q4.737.019 9.474 0a1.775 1.775 0 0 0 1.773-1.55c.1-.776.148-1.558.207-2.338.07-.92.128-1.84.19-2.76.075-1.128.154-2.255.219-3.383a.4.4 0 0 0-.114-.322c-.276-.144-.2-.343-.138-.552a22.312 22.312 0 0 0 .936-5.109zm-5.029 5.162a1.3 1.3 0 0 1 1.236-.822c.074.014.211.035.347.064a.572.572 0 0 0 .7-.3c.117-.222.261-.381.512-.234s.169.371.058.575a1.241 1.241 0 0 1-1.341.616.666.666 0 0 0-.936.378.48.48 0 0 1-.4.129.282.282 0 0 1-.176-.406zm-6.931-3.3a.986.986 0 0 1 .868-1.507c.273-.021.334-.08.276-.354a.811.811 0 0 1 .743-1.063c.172-.034.312-.066.3-.285a.509.509 0 0 1 .325-.55.588.588 0 0 1 .681.164 1.176 1.176 0 0 0 .133.106.985.985 0 0 1 .253-.189.817.817 0 0 1 .5-.071.526.526 0 0 1 .249.414c-.015.322.068.426.406.418a.874.874 0 0 1 .876.818.344.344 0 0 0 .265.328 1.2 1.2 0 0 1 .578 1.809c-.247-.145-.509-.285-.749-.453a.42.42 0 0 1-.01-.276 2.244 2.244 0 0 0 .092-.624.782.782 0 0 0-1.094-.6c-.555.116-1.107.245-1.661.364a.735.735 0 0 0-.679.65.865.865 0 0 0 .429.883.5.5 0 0 1 .1.092l-.773 1.485a7.15 7.15 0 0 0-1.043-.665 1.4 1.4 0 0 0-1.279.2c-.175-.28-.123-.42.321-.864zm5.331 2.246c-.405.144-.745.462-1.146.628a2.838 2.838 0 0 1-.9.129.3.3 0 0 1-.23-.174c-.091-.344-.15-.7-.22-1.044a1.86 1.86 0 0 1 .445-1.027 7.116 7.116 0 0 0 .315-.65.394.394 0 0 1 .2-.18c.178-.06.37-.079.552-.129a.633.633 0 0 1 .859.237 2.132 2.132 0 0 0 .667.433c.457.3.458.391.279.9a1.263 1.263 0 0 1-.821.873zm.17.734l-.362 1.105c-.409-.093-.786-.194-1.169-.256a2.786 2.786 0 0 0-.467.062.366.366 0 0 1-.27-.159 3.631 3.631 0 0 0 2.222-.815zm5.018 3.092c-.07 1.038-.151 2.075-.228 3.113-.079 1.067-.148 2.136-.241 3.2a1.226 1.226 0 0 1-1.323 1.114H8.674a1.254 1.254 0 0 1-1.451-1.3c-.121-1.442-.206-2.887-.307-4.331l-.217-3.115a1.072 1.072 0 0 1 .013-.165 9.082 9.082 0 0 0 .9.329 1.728 1.728 0 0 0 1.328-.2 1.275 1.275 0 0 1 1.429.011 1.815 1.815 0 0 0 1.982-.046 1.138 1.138 0 0 1 1.268.007 1.852 1.852 0 0 0 2.06 0 1.09 1.09 0 0 1 1.213-.033 1.923 1.923 0 0 0 2.065.081c.18-.095.375-.16.608-.257-.028.564-.042 1.076-.077 1.588zm.065-5.808a1.211 1.211 0 0 1-1.12.657.589.589 0 0 1-.178 0 .727.727 0 0 0-1.015.392.432.432 0 0 1-.379.1.289.289 0 0 1-.172-.412 1.241 1.241 0 0 1 1.228-.813 2.662 2.662 0 0 1 .352.063.577.577 0 0 0 .7-.307c.152-.26.343-.353.52-.233a.374.374 0 0 1 .064.549zm-.586-1.539c-.068-.014-.156-.029-.243-.048a.492.492 0 0 0-.646.268.31.31 0 0 1-.448.166.332.332 0 0 1-.13-.486 1.09 1.09 0 0 1 1.293-.6.474.474 0 0 0 .615-.262.311.311 0 0 1 .465-.171.329.329 0 0 1 .114.488 1.128 1.128 0 0 1-1.02.645zm-5.3 12.876a.919.919 0 0 0-.353-.009 1.055 1.055 0 0 0-.382.01.421.421 0 0 0-.252.265.4.4 0 0 0 .206.324 2.8 2.8 0 0 0 .848 0 .392.392 0 0 0 .219-.319.5.5 0 0 0-.283-.275z" transform="translate(-6 -250.156)"></path></svg><svg width="15.656" height="16.313" viewBox="0 0 15.656 16.313" id="04" y="54"><defs><style>.cls-1{fill:#90a4ae;fill-rule:evenodd}</style></defs><path id="_04.svg" data-name="04.svg" class="cls-1" d="M13.431 227.05c.679-.522 1.375-1.095 2.108-1.612a7.208 7.208 0 0 1 2.5-1.2c1.667-.39 2.816.828 2.4 2.559a8.749 8.749 0 0 1-1.684 3.251c-.645.848-1.336 1.658-1.952 2.417.572.6 1.153 1.183 1.705 1.8a.765.765 0 0 1 .181.55c-.043.264-.352.307-.582.123a1.815 1.815 0 0 0-2.771.182c-1.068 1.114-2.16 2.2-3.2 3.35a2.616 2.616 0 0 1-3.959.028 24.866 24.866 0 0 1-1.777-1.964 2.666 2.666 0 0 1 .2-3.475c1.428-1.524 2.883-3.021 4.326-4.531a2.06 2.06 0 0 0 .556-2.3 2.281 2.281 0 0 0-.343-.566.382.382 0 0 1-.01-.586.359.359 0 0 1 .566.078c.578.62 1.15 1.253 1.736 1.896zm1.6 5a2.2 2.2 0 0 1 .524.073.566.566 0 0 0 .714-.25c.553-.672 1.153-1.305 1.674-2 .533-.714.994-1.488 1.422-2.136a3.141 3.141 0 0 1-.554-.484.456.456 0 0 1 .163-.373 2.385 2.385 0 0 1 .658.063 1.615 1.615 0 0 0-.158-1.7 1.4 1.4 0 0 0-1.592-.161 2.571 2.571 0 0 1 0 .654.379.379 0 0 1-.332.17 3.018 3.018 0 0 1-.485-.481 15.227 15.227 0 0 0-3.279 2.42.637.637 0 0 0-.069.385 6.289 6.289 0 0 1-.071 1.872 5.831 5.831 0 0 1-1.19 1.805c-1.056 1.18-2.178 2.294-3.268 3.44a3.292 3.292 0 0 0-.43.553 1.865 1.865 0 0 0 .411 2.405 1.773 1.773 0 0 0 2.384-.33q1.411-1.447 2.8-2.921a3.335 3.335 0 0 1 2.428-1.438 2.627 2.627 0 0 0-3.494-.2c-.79.683-1.558 1.395-2.333 2.1-.209.19-.426.4-.687.127s-.054-.5.155-.69c.674-.6 1.376-1.172 2.019-1.808a3.6 3.6 0 0 1 2.457-1.082zM5.928 237c.683.539.708.883.139 1.477l-.188.2c-.395.413-.366.681.13.969a.37.37 0 0 0 .333-.033 3.178 3.178 0 0 0 .41-.411c.57-.594.89-.57 1.416.13a.539.539 0 0 1-.226.115 1.164 1.164 0 0 0-.914.546 1.215 1.215 0 0 1-2.161-.62 1.424 1.424 0 0 1 .122-.783 1.592 1.592 0 0 1 .4-.474 1.025 1.025 0 0 0 .434-.831.755.755 0 0 1 .105-.285zm8.966-4.948c-.043-.028-.087-.055-.128-.085a.362.362 0 0 1-.118-.592.528.528 0 0 1 .521-.044c.235.166.166.41-.036.6-.037.035-.069.076-.1.115zm3.64-6.024a1.344 1.344 0 0 1 .111-.48.323.323 0 0 1 .549 0 .338.338 0 0 1-.035.515c-.178.179-.349.186-.625-.036zm-.434 1.138a.32.32 0 0 1-.528 0 .353.353 0 0 1 .03-.55.314.314 0 0 1 .5 0 .351.351 0 0 1-.002.55zm-2.616 2.227a.371.371 0 1 1 .509-.54.33.33 0 0 1 0 .512.3.3 0 0 1-.507.028zm-1.2 1.067a1.381 1.381 0 0 1 .117-.487.324.324 0 0 1 .552 0 .344.344 0 0 1-.041.519c-.173.179-.346.175-.622-.032zm-.261-1.241a1.463 1.463 0 0 1 .119-.623.994.994 0 0 1 .5-.056 1.217 1.217 0 0 1-.008.555 1.306 1.306 0 0 1-.606.124zm2.311 1.68a1.29 1.29 0 0 1-.584-.15.569.569 0 0 1-.011-.508.3.3 0 0 1 .514 0 1.825 1.825 0 0 1 .086.659zm.549-4.678a1.51 1.51 0 0 1-.118.641.965.965 0 0 1-.5.049 1.223 1.223 0 0 1 .019-.55 1.3 1.3 0 0 1 .604-.14zm.821 2.43a1.518 1.518 0 0 1 .169-.628.5.5 0 0 1 .487.009.311.311 0 0 1-.028.528 1.815 1.815 0 0 1-.623.091zm-3.75 2.427a.987.987 0 0 1-.11.484.493.493 0 0 1-.483.03.316.316 0 0 1 0-.529 1.249 1.249 0 0 1 .476-.1zm1.85-3.585a.994.994 0 0 1-.11.5.476.476 0 0 1-.484-.027.523.523 0 0 1 .015-.495.875.875 0 0 1 .469-.1zm1.6 1.674a.983.983 0 0 1-.129.481.468.468 0 0 1-.474-.024.526.526 0 0 1 .013-.5.891.891 0 0 1 .478-.085zm-.4-.795a.9.9 0 0 1-.466-.123.522.522 0 0 1 .011-.5.465.465 0 0 1 .473.008.994.994 0 0 1 .1.491z" transform="translate(-4.875 -224.156)"></path></svg><svg width="17" height="17" viewBox="0 0 17 17" id="05" y="71"><defs><style>.cls-1{fill:#90a4ae;fill-rule:evenodd}</style></defs><path id="_05.svg" data-name="05.svg" class="cls-1" d="M7.189 211.06h-.962a8.615 8.615 0 0 0 .511-1.05 1.117 1.117 0 0 1 1.225-.868h.141c.684.031 1.37.041 2.055.041.919 0 1.838-.018 2.757-.026h.01a.418.418 0 0 1 .437.284c.247.523.511 1.037.8 1.615h-.594c-.181 0-.356 0-.531-.011l-.451-.977a.546.546 0 0 0-.492-.436.5.5 0 0 0-.158.027.509.509 0 0 0-.262.7c.063.2.127.4.188.6a.357.357 0 0 1-.016.1h-.771c-.3 0-.594 0-.891-.009a.317.317 0 0 1-.179-.194c-.1-.261-.174-.53-.26-.795a.493.493 0 0 0-.482-.412.5.5 0 0 0-.493.406c-.092.274-.173.553-.279.822a.3.3 0 0 1-.191.175c-.366.007-.732.008-1.109.008m9.717-6.608a16.493 16.493 0 0 1-3.372-.244A28.339 28.339 0 0 1 16.9 204a26.075 26.075 0 0 1 3.18.193 12.456 12.456 0 0 1-3.178.256m-4.184-1.062a4.034 4.034 0 0 1 3.5-3.157 4.876 4.876 0 0 1 .619-.04 4.157 4.157 0 0 1 4.137 3.2 21.113 21.113 0 0 0-4.151-.343 20.921 20.921 0 0 0-4.109.335M10.185 195a.424.424 0 0 0-.439.381 2.178 2.178 0 0 0-.017.358v12.089c0 .124-.011.249-.018.388H6.067a.485.485 0 0 0-.589.54c.024.26.191.381.634.435-.348.7-.685 1.361-1.016 2.031a.481.481 0 0 0 .477.772h3.08a.6.6 0 0 0 .6-.325.64.64 0 0 0 .647.331h4.524c.317 0 .635-.052.953-.055h.269c.243 0 .487 0 .73.006s.487 0 .73 0c.425 0 .848-.008 1.271-.037a7.728 7.728 0 0 0 1.706-.411.78.78 0 0 0 .516-.644q.572-2.66 1.178-5.311a5.008 5.008 0 0 0 .1-2.592 5.2 5.2 0 0 0-4.536-3.68 5.826 5.826 0 0 0-.506-.022 5.174 5.174 0 0 0-4.853 3.173 3.656 3.656 0 0 0-.33 1.983c.145.843.369 1.673.555 2.509.094.422.181.846.273 1.276h-1.813v-.38-12.089c0-.1.005-.2 0-.3a.428.428 0 0 0-.425-.42.453.453 0 0 0-.052 0" transform="translate(-5 -195)"></path></svg><svg width="16.594" height="17.594" viewBox="0 0 16.594 17.594" id="06" y="88"><defs><style>.cls-1{fill:#90a4ae;fill-rule:evenodd}</style></defs><path id="_06.svg" data-name="06.svg" class="cls-1" d="M18.915 177.163l.061.055c.034.056.065.115.1.169a.491.491 0 0 1 .1.126.152.152 0 0 1-.1.1.239.239 0 0 1-.148-.088 2.437 2.437 0 0 1-.162-.263zM13.484 166.8h.992a1.446 1.446 0 0 1 1.514 1.343 4.637 4.637 0 0 1 .019.751.232.232 0 0 0 .264.289.541.541 0 0 0 .641-.38 2.022 2.022 0 0 1 1.533-1.188 2.493 2.493 0 0 1 2.318.535 1.864 1.864 0 0 1-.612 3.177 2.508 2.508 0 0 1-2.774-.42 2.3 2.3 0 0 1-.524-.764.333.333 0 0 0-.362-.241c-.585.01-.482-.033-.477.493a1.772 1.772 0 0 1-.539 1.537 2.756 2.756 0 0 1-.247.174.7.7 0 0 0-.3.2 1.8 1.8 0 0 0 0 .634.385.385 0 0 0 .238.151 5.587 5.587 0 0 1 3.652 3.546 5.741 5.741 0 0 1-3.877 7.508 5.732 5.732 0 0 1-7.143-6.031 5.718 5.718 0 0 1 3.965-5.011c.144-.048.306-.075.275-.276-.036-.23.146-.522-.208-.668a1.5 1.5 0 0 1-.9-1.492 4.4 4.4 0 0 1 0-.5.2.2 0 0 0-.247-.261.333.333 0 0 1-.236-.042.552.552 0 0 1-.2-.344.513.513 0 0 1 .314-.311c.365-.092.368-.07.37-.471a2.022 2.022 0 0 1 .351-1.393 1.44 1.44 0 0 1 1.1-.538c.365-.013.733-.007 1.1-.007zm-4.979 11.791a4.968 4.968 0 1 0 9.935-.012 4.968 4.968 0 1 0-9.935.012zm5.667-5.724c.008-.111.008-.176.018-.239.042-.272-.076-.36-.339-.342-.283.019-.568.008-.852 0a.2.2 0 0 0-.243.246c0 .341.016.359.36.316a2.646 2.646 0 0 1 .356-.017c.228.009.452.024.7.036zm-7.622.045a1.16 1.16 0 0 1-.275-.3.34.34 0 0 1 .194-.438l1.764-1.019c.223-.129.445-.259.669-.385a.365.365 0 0 1 .531.1.348.348 0 0 1-.157.515c-.822.486-1.651.96-2.478 1.437a2.2 2.2 0 0 1-.247.09zm.028-6.147c.136.065.23.1.316.151l2.287 1.319a1.306 1.306 0 0 1 .116.074.355.355 0 0 1 .13.506.329.329 0 0 1-.48.121 85.629 85.629 0 0 1-2.52-1.468.509.509 0 0 1-.141-.427.767.767 0 0 1 .293-.276zm.04 3.319H5.272c-.314 0-.458-.113-.463-.348a.365.365 0 0 1 .446-.368q1.345-.007 2.691 0a.377.377 0 0 1 .451.369c0 .236-.149.347-.462.348l-1.316-.001zm6.869 8.411c1.312 0 2.624 0 3.935-.006.241 0 .31.059.3.315a4.248 4.248 0 0 1-8.423.606c-.038-.209-.021-.427-.061-.635-.045-.239.05-.285.262-.284 1.328.009 2.658.009 3.988.009z" transform="translate(-4.813 -166.75)"></path></svg><svg width="16" height="16" viewBox="0 0 16 16" id="07" y="106"><defs><style>.cls-1{fill:#90a4ae;fill-rule:evenodd}</style></defs><path id="_07.svg" data-name="07.svg" class="cls-1" d="M14.049 140A8 8 0 1 0 22 148.1a8 8 0 0 0-7.951-8.1zM14 149.93a1.976 1.976 0 0 1-1.93-1.93 1.953 1.953 0 0 1 1.95-1.938 1.921 1.921 0 0 1 1.919 1.922A1.946 1.946 0 0 1 14 149.93zm5.89-2.844a1.426 1.426 0 0 0-.258.776c-.04.539-.013 1.082-.018 1.624a.627.627 0 0 1-.6.7.613.613 0 0 1-.609-.654c-.018-.51-.005-1.021-.008-1.531a1.533 1.533 0 0 0-1.689-1.615.553.553 0 0 1-.517-.24 2.857 2.857 0 0 0-4.545.216.437.437 0 0 1-.438.243 1.5 1.5 0 0 0-1.672 1.5c-.018.207 0 .416-.018.624a.613.613 0 0 1-.556.576.6.6 0 0 1-.612-.475 1.354 1.354 0 0 1-.039-.4 1.609 1.609 0 0 0-1.226-1.83 7.052 7.052 0 0 1 13.757-.314 6.9 6.9 0 0 0-.948.8zm-4.151-3.17c-.241-.561-.471-1.127-.734-1.678a.41.41 0 0 0-.566-.178.417.417 0 0 0-.249.565c.212.561.452 1.113.707 1.656a.4.4 0 0 0 .534.2 1.567 1.567 0 0 0 .38-.381l-.06-.059a.409.409 0 0 0-.008-.125zm-6.384.377a1.15 1.15 0 0 0-.32-.3.48.48 0 0 0-.509.681c.194.46.407.912.627 1.36a.468.468 0 0 0 .651.241.451.451 0 0 0 .2-.639c-.204-.449-.404-.905-.644-1.343zm9.711.365c-.36.206-.706.441-1.046.679a.445.445 0 0 0-.137.63.456.456 0 0 0 .655.142c.347-.21.689-.429 1.015-.67a.913.913 0 0 0 .2-.294.465.465 0 0 0-.682-.487zm-6.657-2.423a.452.452 0 0 0-.624.166c-.206.325-.394.66-.585.993a2.117 2.117 0 0 0-.1.277 1.431 1.431 0 0 0 .323.367.4.4 0 0 0 .553-.137q.332-.508.619-1.045a.452.452 0 0 0-.181-.621zm5.82 1.351a4.5 4.5 0 0 0-.734-.8.439.439 0 0 0-.693.325 1.709 1.709 0 0 0 1.034 1.153.443.443 0 0 0 .398-.678z" transform="translate(-6 -140)"></path></svg><svg viewBox="0 0 501.28 501.28" width="501.28" height="501.28" id="favorite" y="122"><path fill="#ffcd00" d="M501.28 194.37l-166.02-35.04-84.62-147.06v407.5l154.9 69.24-17.98-168.72z"></path><path fill="#ffda44" d="M166.02 159.33L0 194.37l113.72 125.92-17.98 168.72 154.9-69.24V12.27z"></path></svg></svg>